<?xml version="1.0" encoding="UTF-8"?>
<svg width="440px" height="140px" viewBox="0 0 440 140" version="1.1" xmlns="http://www.w3.org/2000/svg" xmlns:xlink="http://www.w3.org/1999/xlink">
    <!-- Generator: Sketch 57.1 (83088) - https://sketch.com -->
    <title>Artboard Copy 3</title>
    <desc>Created with Sketch.</desc>
    <defs>
        <path d="M83.0872988,86.5574104 L75.2854142,96.5418776 C73.5797304,98.7242176 70.9641782,99.9996069 68.1943469,99.9996069 L38.6939588,99.9995534 C53.4921637,93.7518217 68.2897452,84.7168152 83.0872988,86.5574104 Z M99.9074938,60.1053765 L99.9558304,60.3899335 C100.328015,62.830742 99.6812163,65.3286291 98.1496115,67.2882433 L87.4318105,80.9996774 C66.9622774,75.3272337 46.4919011,93.0379933 26.0215021,97.9308804 C25.5267879,97.5216313 25.0734605,97.0570222 24.6708313,96.5418776 L3.05746603,68.8939798 C35.3405047,85.845047 67.6244886,35.5739111 99.9074938,60.1053765 Z M91.1784535,21.6769393 L91.2038219,21.7407513 C91.3915193,22.2012966 91.5420804,22.6800387 91.6523464,23.1729661 L98.2002094,52.4410894 C65.4554221,30.1915083 32.7113707,82.3326249 -0.0324785535,60.6418765 C0.00173353071,60.3511808 0.0511872385,60.0654914 0.114767552,59.7812651 L5.35049036,36.3777968 C33.9593765,49.984179 62.5688086,12.128948 91.1784535,21.6769393 Z M53.9471446,0.898512589 L80.0394802,13.7165147 C55.57889,14.6456534 31.1187226,40.8421351 6.65870187,30.5299856 L8.30389915,23.1729661 C8.8993351,20.511158 10.6697797,18.2629958 13.117811,17.0601204 L46.0091009,0.898512589 C48.5121906,-0.331416465 51.4440549,-0.331416465 53.9471446,0.898512589 Z" id="path-1"></path>
    </defs>
    <g id="Artboard-Copy-3" stroke="none" stroke-width="1" fill="none" fill-rule="evenodd">
        <g id="Path-2-+-Path-3-+-Path-4-Mask" transform="translate(20.000000, 20.000000)">
            <mask id="mask-2" fill="white">
                <use xlink:href="#path-1"></use>
            </mask>
            <use id="Combined-Shape" fill="#1769FF" xlink:href="#path-1"></use>
        </g>
        <path d="M141.523694,92.8064516 C141.100444,92.8064516 140.740686,92.6559155 140.444411,92.3548387 C140.148135,92.0537619 140,91.6881742 140,91.2580645 L140,48.5483871 C140,48.0752688 140.148135,47.6989261 140.444411,47.4193548 C140.740686,47.1397835 141.100444,47 141.523694,47 L147.301035,47 C147.766611,47 148.13695,47.1397835 148.412063,47.4193548 C148.687175,47.6989261 148.82473,48.0752688 148.82473,48.5483871 L148.82473,63.2580645 C151.364233,60.1612748 154.771349,58.6129032 159.046179,58.6129032 C162.940084,58.6129032 166.050929,59.9139655 168.378807,62.516129 C170.706685,65.1182926 171.870607,68.6558916 171.870607,73.1290323 L171.870607,91.2580645 C171.870607,91.6881742 171.733053,92.0537619 171.45794,92.3548387 C171.182827,92.6559155 170.812488,92.8064516 170.346913,92.8064516 L164.569571,92.8064516 C164.103996,92.8064516 163.723076,92.6559155 163.426801,92.3548387 C163.130525,92.0537619 162.98239,91.6881742 162.98239,91.2580645 L162.98239,73.516129 C162.98239,71.0214929 162.379267,69.0752758 161.173003,67.6774194 C159.966739,66.2795629 158.242019,65.5806452 155.998791,65.5806452 C153.840213,65.5806452 152.104912,66.2903155 150.792835,67.7096774 C149.480758,69.1290394 148.82473,71.0645039 148.82473,73.516129 L148.82473,91.2580645 C148.82473,91.6881742 148.687175,92.0537619 148.412063,92.3548387 C148.13695,92.6559155 147.766611,92.8064516 147.301035,92.8064516 L141.523694,92.8064516 Z M193.160003,93.4516129 C188.419597,93.4516129 184.663305,92.0752826 181.891014,89.3225806 C179.118722,86.5698787 177.647949,82.6559394 177.478649,77.5806452 L177.415161,75.9677419 C177.415161,70.591371 178.801286,66.3548542 181.573577,63.2580645 C184.345868,60.1612748 188.186809,58.6129032 193.096516,58.6129032 C198.133197,58.6129032 202.016463,60.1612748 204.746429,63.2580645 C207.476395,66.3548542 208.841357,70.4838452 208.841357,75.6451613 L208.841357,77 C208.841357,77.4301075 208.693222,77.7956974 208.396947,78.0967742 C208.100673,78.397851 207.719751,78.5483871 207.254176,78.5483871 L186.176404,78.5483871 L186.176404,79.0645161 C186.261054,81.4731303 186.906501,83.4623577 188.112765,85.0322581 C189.31903,86.6021584 190.980263,87.3870968 193.096516,87.3870968 C195.509044,87.3870968 197.477129,86.3978594 199.000831,84.4193548 C199.381757,83.9462342 199.678028,83.6559145 199.889653,83.5483871 C200.101278,83.4408597 200.461036,83.3870968 200.968937,83.3870968 L206.555816,83.3870968 C206.936741,83.3870968 207.264756,83.4946226 207.539868,83.7096774 C207.814981,83.9247323 207.952536,84.2258045 207.952536,84.6129032 C207.952536,85.6451665 207.349413,86.8602081 206.143149,88.2580645 C204.936885,89.655921 203.212164,90.8709677 200.968937,91.9032258 C198.725709,92.935489 196.122757,93.4516129 193.160003,93.4516129 Z M200.080115,73.0645161 L200.080115,72.9354839 C200.080115,70.3978368 199.45583,68.365599 198.207241,66.8387097 C196.958651,65.3118203 195.255094,64.5483871 193.096516,64.5483871 C190.937938,64.5483871 189.244961,65.3118203 188.017535,66.8387097 C186.790108,68.365599 186.176404,70.3978368 186.176404,72.9354839 L186.176404,73.0645161 L200.080115,73.0645161 Z M216.100068,105.064516 C215.676817,105.064516 215.31706,104.924733 215.020785,104.645161 C214.724509,104.36559 214.576374,103.98925 214.576374,103.516129 L214.576374,60.8064516 C214.576374,60.333331 214.724509,59.9569906 215.020785,59.6774194 C215.31706,59.3978481 215.676817,59.2580645 216.100068,59.2580645 L221.179049,59.2580645 C221.644625,59.2580645 222.025545,59.4086006 222.32182,59.7096774 C222.618095,60.0107542 222.766231,60.3763419 222.766231,60.8064516 L222.766231,63.3870968 C225.009459,60.2042852 228.37425,58.6129032 232.860706,58.6129032 C237.135536,58.6129032 240.415679,59.978481 242.701232,62.7096774 C244.986785,65.4408739 246.214193,69.1075039 246.383493,73.7096774 C246.425818,74.225809 246.446981,74.9999948 246.446981,76.0322581 C246.446981,77.0645213 246.425818,77.8387071 246.383493,78.3548387 C246.256518,82.8709903 245.039691,86.5161152 242.732976,89.2903226 C240.42626,92.06453 237.135536,93.4516129 232.860706,93.4516129 C228.6282,93.4516129 225.390382,91.9247465 223.147154,88.8709677 L223.147154,103.516129 C223.147154,103.98925 223.0096,104.36559 222.734487,104.645161 C222.459374,104.924733 222.089036,105.064516 221.62346,105.064516 L216.100068,105.064516 Z M230.44819,86.483871 C234.976971,86.483871 237.389463,83.6451897 237.685738,77.9677419 C237.728063,77.5376323 237.749225,76.8924774 237.749225,76.0322581 C237.749225,75.1720387 237.728063,74.5268839 237.685738,74.0967742 C237.389463,68.4193265 234.976971,65.5806452 230.44819,65.5806452 C228.035662,65.5806452 226.236874,66.3763361 225.051772,67.9677419 C223.866671,69.5591477 223.231805,71.4946123 223.147154,73.7741935 C223.104829,74.2903252 223.083667,75.1075213 223.083667,76.2258065 C223.083667,77.3440916 223.104829,78.1827929 223.147154,78.7419355 C223.231805,80.8924839 223.887833,82.7204226 225.11526,84.2258065 C226.342686,85.7311903 228.120312,86.483871 230.44819,86.483871 Z M267.164991,92.8064516 C263.313411,92.8064516 260.414189,91.7849565 258.467236,89.7419355 C256.520284,87.6989145 255.546822,84.6989445 255.546822,80.7419355 L255.546822,66.1612903 L250.531328,66.1612903 C250.108077,66.1612903 249.74832,66.0107542 249.452044,65.7096774 C249.155769,65.4086006 249.007634,65.0430129 249.007634,64.6129032 L249.007634,60.8064516 C249.007634,60.3763419 249.155769,60.0107542 249.452044,59.7096774 C249.74832,59.4086006 250.108077,59.2580645 250.531328,59.2580645 L255.546822,59.2580645 L255.546822,48.5483871 C255.546822,48.0752688 255.694957,47.6989261 255.991233,47.4193548 C256.287508,47.1397835 256.647266,47 257.070516,47 L262.339959,47 C262.805535,47 263.175873,47.1397835 263.450986,47.4193548 C263.726099,47.6989261 263.863654,48.0752688 263.863654,48.5483871 L263.863654,59.2580645 L271.799562,59.2580645 C272.222812,59.2580645 272.58257,59.4086006 272.878845,59.7096774 C273.175121,60.0107542 273.323256,60.3763419 273.323256,60.8064516 L273.323256,64.6129032 C273.323256,65.0430129 273.175121,65.4086006 272.878845,65.7096774 C272.58257,66.0107542 272.222812,66.1612903 271.799562,66.1612903 L263.863654,66.1612903 L263.863654,80.0322581 C263.863654,81.8817297 264.181087,83.2795652 264.815963,84.2258065 C265.450838,85.172043 266.487787,85.6451613 267.926838,85.6451613 L272.370947,85.6451613 C272.836523,85.6451613 273.206861,85.7849448 273.481974,86.0645161 C273.757087,86.3440874 273.894641,86.7204277 273.894641,87.1935484 L273.894641,91.2580645 C273.894641,91.6881742 273.757087,92.0537619 273.481974,92.3548387 C273.206861,92.6559155 272.836523,92.8064516 272.370947,92.8064516 L267.164991,92.8064516 Z M288.073464,93.4516129 C285.914886,93.4516129 283.936219,93.0107571 282.137405,92.1290323 C280.33859,91.2473074 278.920722,90.053771 277.883758,88.5483871 C276.846794,87.0430032 276.32832,85.3871058 276.32832,83.5806452 C276.32832,80.6558994 277.492241,78.2903316 279.820119,76.483871 C282.147997,74.6774103 285.343491,73.4516161 289.406696,72.8064516 L298.104452,71.516129 L298.104452,70.1612903 C298.104452,68.3118187 297.638883,66.9139832 296.707732,65.9677419 C295.776581,65.0215006 294.295226,64.5483871 292.263623,64.5483871 C290.866897,64.5483871 289.745299,64.806449 288.898798,65.3225806 C288.052297,65.8387123 287.364525,66.3655887 286.835462,66.9032258 L285.787922,67.9677419 C285.618622,68.4838735 285.301189,68.7419355 284.835613,68.7419355 L279.883607,68.7419355 C279.502683,68.7419355 279.174667,68.6129032 278.899554,68.3548387 C278.624441,68.0967729 278.486887,67.7526882 278.486887,67.3225806 C278.529212,66.2473065 279.047686,65.0322648 280.042325,63.6774194 C281.036964,62.3225739 282.571224,61.13979 284.645152,60.1290323 C286.719079,59.1182745 289.279707,58.6129032 292.327111,58.6129032 C297.321467,58.6129032 300.961367,59.7526768 303.24692,62.0322581 C305.532473,64.3118394 306.675232,67.3010568 306.675232,71 L306.675232,91.2580645 C306.675232,91.6881742 306.537678,92.0537619 306.262565,92.3548387 C305.987452,92.6559155 305.617114,92.8064516 305.151538,92.8064516 L299.882095,92.8064516 C299.458845,92.8064516 299.099087,92.6559155 298.802812,92.3548387 C298.506536,92.0537619 298.358401,91.6881742 298.358401,91.2580645 L298.358401,88.7419355 C297.42725,90.1182865 296.115193,91.2473074 294.42219,92.1290323 C292.729197,93.0107571 290.612967,93.4516129 288.073464,93.4516129 Z M290.232031,87.2580645 C292.559909,87.2580645 294.464508,86.4838787 295.945885,84.9354839 C297.427262,83.3870968 298.167939,81.1505523 298.167939,78.2258065 L298.167939,76.9354839 L291.819212,77.9677419 C286.951831,78.7419394 284.518177,80.3978368 284.518177,82.9354839 C284.518177,84.3118348 285.078976,85.3763403 286.20059,86.1290323 C287.322203,86.8817242 288.666004,87.2580645 290.232031,87.2580645 Z M328.662988,107 C324.896059,107 321.8487,106.365598 319.520822,105.096774 C317.192944,103.827951 315.542292,102.376352 314.568816,100.741935 C313.595339,99.1075187 313.108609,97.7096832 313.108609,96.5483871 C313.108609,96.1182774 313.256744,95.7634423 313.553019,95.483871 C313.849295,95.2042997 314.209052,95.0645161 314.632303,95.0645161 L320.282669,95.0645161 C320.663595,95.0645161 320.991609,95.1612894 321.266722,95.3548387 C321.541835,95.5483881 321.764038,95.9032232 321.933338,96.4193548 C322.398914,97.53764 323.097267,98.4946197 324.028418,99.2903226 C324.959569,100.086025 326.3986,100.483871 328.345552,100.483871 C330.885055,100.483871 332.74733,99.9139842 333.932431,98.7741935 C335.117533,97.6344029 335.710075,95.6451755 335.710075,92.8064516 L335.710075,88.4193548 C333.424522,91.1720568 330.186704,92.5483871 325.996523,92.5483871 C321.594718,92.5483871 318.282832,91.1935619 316.060766,88.483871 C313.838701,85.77418 312.643036,82.0752923 312.473736,77.3870968 L312.410249,75.6451613 L312.473736,73.9032258 C312.643036,69.3010523 313.849282,65.6021645 316.09251,62.8064516 C318.335738,60.0107387 321.637043,58.6129032 325.996523,58.6129032 C328.239751,58.6129032 330.207837,59.0430065 331.900839,59.9032258 C333.593841,60.7634409 334.990547,61.9247239 336.090998,63.3870968 L336.090998,60.8709677 C336.090998,60.3978471 336.249715,60.0107542 336.567153,59.7096774 C336.884591,59.4086006 337.254929,59.2580645 337.67818,59.2580645 L342.884136,59.2580645 C343.307386,59.2580645 343.667144,59.4086006 343.963419,59.7096774 C344.259695,60.0107542 344.40783,60.3978471 344.40783,60.8709677 L344.471317,91.9677419 C344.471317,96.7419594 343.15926,100.440847 340.535107,103.064516 C337.910954,105.688185 333.95362,107 328.662988,107 Z M328.409039,85.7096774 C330.779242,85.7096774 332.556868,84.9354839 333.74197,83.3870968 C334.927071,81.8387019 335.5831,79.9462477 335.710075,77.7096774 C335.7524,77.3655897 335.773562,76.6774245 335.773562,75.6451613 C335.773562,74.6128981 335.7524,73.9247329 335.710075,73.5806452 C335.5831,71.3440748 334.927071,69.4516206 333.74197,67.9032258 C332.556868,66.354831 330.779242,65.5806452 328.409039,65.5806452 C323.837933,65.5806452 321.425442,68.4193265 321.171491,74.0967742 L321.108004,75.6451613 C321.108004,82.3548723 323.541658,85.7096774 328.409039,85.7096774 Z M366.459073,93.4516129 C361.464717,93.4516129 357.613195,92.1613032 354.904391,89.5806452 C352.195588,86.9999871 350.735395,83.4301303 350.52377,78.8709677 L350.460283,76.0322581 L350.52377,73.1935484 C350.735395,68.6773968 352.21675,65.1182926 354.967878,62.516129 C357.719007,59.9139655 361.549367,58.6129032 366.459073,58.6129032 C371.326455,58.6129032 375.135652,59.9139655 377.886781,62.516129 C380.63791,65.1182926 382.119264,68.6773968 382.33089,73.1935484 C382.373215,73.70968 382.394377,74.6559071 382.394377,76.0322581 C382.394377,77.408609 382.373215,78.3548361 382.33089,78.8709677 C382.119264,83.4301303 380.659072,86.9999871 377.950268,89.5806452 C375.241465,92.1613032 371.411105,93.4516129 366.459073,93.4516129 Z M366.459073,86.9354839 C368.702301,86.9354839 370.427021,86.2258135 371.633285,84.8064516 C372.83955,83.3870897 373.484997,81.301089 373.569647,78.5483871 C373.611972,78.1182774 373.633134,77.2795761 373.633134,76.0322581 C373.633134,74.78494 373.611972,73.9462387 373.569647,73.516129 C373.484997,70.7634271 372.828968,68.6666739 371.601542,67.2258065 C370.374115,65.784939 368.659976,65.0645161 366.459073,65.0645161 C364.215845,65.0645161 362.480544,65.784939 361.253118,67.2258065 C360.025691,68.6666739 359.369663,70.7634271 359.285012,73.516129 L359.221525,76.0322581 L359.285012,78.5483871 C359.369663,81.301089 360.025691,83.3870897 361.253118,84.8064516 C362.480544,86.2258135 364.215845,86.9354839 366.459073,86.9354839 Z M389.907037,92.8064516 C389.483786,92.8064516 389.124028,92.6559155 388.827753,92.3548387 C388.531478,92.0537619 388.383342,91.6881742 388.383342,91.2580645 L388.383342,60.8064516 C388.383342,60.333331 388.531478,59.9569906 388.827753,59.6774194 C389.124028,59.3978481 389.483786,59.2580645 389.907037,59.2580645 L395.176479,59.2580645 C395.642055,59.2580645 396.012394,59.3978481 396.287507,59.6774194 C396.562619,59.9569906 396.700174,60.333331 396.700174,60.8064516 L396.700174,63.4516129 C399.282002,60.2257903 402.816091,58.6129032 407.302547,58.6129032 C411.196452,58.6129032 414.286135,59.9032129 416.571688,62.483871 C418.857241,65.064529 420,68.6128806 420,73.1290323 L420,91.2580645 C420,91.6881742 419.862446,92.0537619 419.587333,92.3548387 C419.31222,92.6559155 418.941881,92.8064516 418.476306,92.8064516 L412.762452,92.8064516 C412.339201,92.8064516 411.979444,92.6559155 411.683168,92.3548387 C411.386893,92.0537619 411.238757,91.6881742 411.238757,91.2580645 L411.238757,73.516129 C411.238757,71.0214929 410.635634,69.0752758 409.42937,67.6774194 C408.223106,66.2795629 406.498386,65.5806452 404.255158,65.5806452 C402.096581,65.5806452 400.361279,66.2903155 399.049203,67.7096774 C397.737126,69.1290394 397.081097,71.0645039 397.081097,73.516129 L397.081097,91.2580645 C397.081097,91.6881742 396.943543,92.0537619 396.66843,92.3548387 C396.393317,92.6559155 396.022979,92.8064516 395.557403,92.8064516 L389.907037,92.8064516 Z" id="heptagon" fill="#222B45" fill-rule="nonzero"></path>
    </g>
</svg>